<?xml version="1.0" encoding="utf-8"?>
<!-- Generator: Adobe Illustrator 20.1.0, SVG Export Plug-In . SVG Version: 6.00 Build 0)  -->
<svg version="1.1" xmlns="http://www.w3.org/2000/svg" xmlns:xlink="http://www.w3.org/1999/xlink" x="0px" y="0px"
	 viewBox="0 0 612 792" style="enable-background:new 0 0 612 792;" xml:space="preserve">
<style type="text/css">
	.st0{fill:#FFFFFF;}
	.st1{fill:#FFFFFF;stroke:#000000;stroke-width:6;stroke-miterlimit:10;}
	.st2{fill:#7D7D7D;stroke:#000000;stroke-width:7;stroke-miterlimit:10;}
	.st3{stroke:#000000;stroke-width:7;stroke-miterlimit:10;}
	.st4{fill:#FFFFFF;stroke:#000000;stroke-width:7;stroke-miterlimit:10;}
	.st5{fill:#78C043;stroke:#000000;stroke-width:7;stroke-miterlimit:10;}
	.st6{fill:#F4CF32;stroke:#000000;stroke-width:7;stroke-miterlimit:10;}
	.st7{fill:#ED1C24;stroke:#000000;stroke-width:7;stroke-miterlimit:10;}
	.st8{fill:#050606;}
</style>
<g id="Layer_1">
	<g>
		<path class="st0" d="M599.7,254.8c0,0-126.1,129.7-281.7,129.7S36.3,254.8,36.3,254.8S162.4,125.1,318,125.1
			S599.7,254.8,599.7,254.8z"/>
		<path d="M600.1,255.2c-9,9.8-18.6,19-28.6,27.7c-10,8.8-20.3,17.1-31,25.1c-10.7,7.9-21.7,15.5-33,22.6c-2.8,1.8-5.7,3.5-8.5,5.3
			l-8.7,5c-2.9,1.7-5.8,3.2-8.8,4.9c-1.5,0.8-2.9,1.6-4.4,2.4l-4.5,2.3c-5.9,3.1-12,5.9-18.1,8.8c-6.1,2.7-12.3,5.4-18.5,7.8
			c-6.2,2.5-12.6,4.7-18.9,6.9c-3.2,1-6.4,2-9.6,3c-1.6,0.5-3.2,1-4.8,1.5l-4.9,1.3c-13,3.6-26.2,6.2-39.6,8.2l-10,1.3
			c-3.4,0.3-6.7,0.5-10.1,0.8l-5.1,0.4c-1.7,0.1-3.4,0.1-5.1,0.2L318,391l-10.1-0.3c-1.7-0.1-3.3-0.1-5-0.2l-5.1-0.4
			c-3.4-0.3-6.8-0.5-10.2-0.8l-10-1.3c-13.3-2-26.6-4.5-39.6-8.2l-4.9-1.3c-1.6-0.5-3.2-1-4.8-1.5c-3.2-1-6.4-2-9.6-3
			c-6.3-2.2-12.7-4.4-18.9-6.9c-6.3-2.4-12.4-5.1-18.5-7.8c-6.1-2.9-12.1-5.7-18.1-8.8l-4.5-2.3c-1.5-0.8-2.9-1.6-4.4-2.4
			c-2.9-1.6-5.9-3.2-8.8-4.9l-8.7-5c-2.9-1.7-5.7-3.5-8.5-5.3c-11.3-7.1-22.3-14.7-33-22.6c-10.6-8-21-16.3-31-25.1
			c-10-8.8-19.6-17.9-28.6-27.7l-0.4-0.5l0.4-0.5c9-9.8,18.6-19,28.6-27.7c10-8.8,20.3-17.1,31-25.1c10.7-7.9,21.7-15.5,33-22.6
			c2.8-1.8,5.7-3.5,8.5-5.3l8.7-5c2.9-1.7,5.8-3.2,8.8-4.9c1.5-0.8,2.9-1.6,4.4-2.4l4.5-2.3c5.9-3.1,12-5.9,18.1-8.8
			c6.1-2.7,12.3-5.4,18.5-7.8c6.2-2.5,12.6-4.7,18.9-6.9c3.2-1,6.4-2,9.6-3c1.6-0.5,3.2-1,4.8-1.5l4.9-1.3c13-3.6,26.2-6.2,39.6-8.2
			l10-1.3c3.4-0.3,6.7-0.5,10.1-0.8l5.1-0.4c1.7-0.1,3.4-0.1,5.1-0.2l10.3-0.3l9.9,0.3c1.7,0.1,3.3,0.1,5,0.2l5.1,0.4
			c3.4,0.3,6.8,0.5,10.2,0.8l10,1.3c13.3,2,26.6,4.5,39.6,8.2l4.9,1.3c1.6,0.5,3.2,1,4.8,1.5c3.2,1,6.4,2,9.6,3
			c6.3,2.2,12.7,4.4,18.9,6.9c6.3,2.4,12.4,5.1,18.5,7.8c6.1,2.9,12.1,5.7,18.1,8.8l4.5,2.3c1.5,0.8,2.9,1.6,4.4,2.4
			c2.9,1.6,5.9,3.2,8.8,4.9l8.7,5c2.9,1.7,5.7,3.5,8.5,5.3c11.3,7.1,22.3,14.7,33,22.6c10.6,8,21,16.3,31,25.1
			c10,8.8,19.6,17.9,28.6,27.7l0.4,0.5L600.1,255.2z M598.7,254.8c-4.7-4.3-9.6-8.4-14.5-12.4c-5.1-4.2-10.3-8.3-15.5-12.3
			c-10.5-8-21.2-15.7-32.1-22.9c-10.9-7.3-22.1-14.2-33.5-20.7c-11.4-6.5-23-12.5-34.8-18.1c-5.9-2.9-11.9-5.4-17.9-8
			c-6.1-2.4-12.1-5-18.2-7.1c-6.1-2.3-12.3-4.3-18.5-6.3c-3.1-1-6.2-1.8-9.4-2.7c-1.6-0.4-3.1-0.9-4.7-1.3l-4.7-1.2l-4.7-1.2
			c-1.6-0.4-3.1-0.8-4.7-1.1l-9.5-2l-2.4-0.5l-2.4-0.4l-4.8-0.8c-3.2-0.5-6.4-1.1-9.6-1.4l-9.6-1.2c-3.2-0.3-6.4-0.5-9.6-0.8
			l-4.8-0.4c-1.6-0.1-3.3-0.1-4.9-0.1l-9.9-0.2l-9.5,0.2c-1.6,0-3.2,0.1-4.8,0.1l-4.8,0.4c-3.2,0.3-6.5,0.4-9.7,0.8l-9.6,1.2
			c-3.2,0.3-6.4,0.9-9.6,1.4l-4.8,0.8l-2.4,0.4l-2.4,0.5l-9.5,2c-1.6,0.3-3.2,0.7-4.7,1.1l-4.7,1.2l-4.7,1.2
			c-1.6,0.4-3.1,0.9-4.7,1.3c-3.1,0.9-6.2,1.8-9.4,2.7c-6.2,2.1-12.4,4-18.5,6.3c-6.2,2.1-12.2,4.7-18.2,7.1c-6,2.6-12,5.2-17.9,8
			C156,174,144.4,180,133,186.5c-11.4,6.5-22.6,13.4-33.5,20.7c-11,7.2-21.7,14.9-32.1,22.9c-5.2,4-10.4,8.1-15.5,12.3
			c-5.1,4.2-10.1,8.5-15,12.9v-0.9c4.9,4.4,9.9,8.7,15,12.9c5.1,4.2,10.3,8.3,15.5,12.3c10.5,8,21.2,15.7,32.1,22.9
			c10.9,7.3,22.1,14.2,33.5,20.7c11.4,6.5,23,12.5,34.8,18.1c5.9,2.9,11.9,5.4,17.9,8c6.1,2.4,12.1,5,18.2,7.1
			c6.1,2.3,12.3,4.3,18.5,6.3c3.1,1,6.2,1.8,9.4,2.7c1.6,0.4,3.1,0.9,4.7,1.3l4.7,1.2l4.7,1.2c1.6,0.4,3.1,0.8,4.7,1.1l9.5,2
			l2.4,0.5l2.4,0.4l4.8,0.8c3.2,0.5,6.4,1.1,9.6,1.4l9.6,1.2c3.2,0.3,6.4,0.5,9.6,0.8l4.8,0.4c1.6,0.1,3.3,0.1,4.9,0.1l9.7,0.2
			l9.7-0.2c1.6,0,3.2-0.1,4.8-0.1l4.8-0.4c3.2-0.3,6.5-0.4,9.7-0.8l9.6-1.2c3.2-0.3,6.4-0.9,9.6-1.4l4.8-0.8l2.4-0.4l2.4-0.5l9.5-2
			c1.6-0.3,3.2-0.7,4.7-1.1l4.7-1.2l4.7-1.2c1.6-0.4,3.1-0.9,4.7-1.3c3.1-0.9,6.2-1.8,9.4-2.7c6.2-2.1,12.4-4,18.5-6.3
			c6.2-2.1,12.2-4.7,18.2-7.1c6-2.6,12-5.2,17.9-8c11.8-5.6,23.5-11.6,34.8-18.1c11.4-6.5,22.6-13.4,33.5-20.7
			c11-7.2,21.7-14.9,32.1-22.9c5.2-4,10.4-8.1,15.5-12.3C589.1,263.2,594,259.1,598.7,254.8z"/>
	</g>
	<circle class="st1" cx="318" cy="254.8" r="123.7"/>
	<circle class="st1" cx="318" cy="254.8" r="123.7"/>
	<g>
		<path class="st2" d="M318,254.8l-114.5,30.7c-11.3-42.1-0.2-83.6,30.7-114.5L318,254.8z"/>
	</g>
	<g>
		<path class="st3" d="M318,254.8l-30.7,114.5c-42.1-11.3-72.5-41.7-83.8-83.8L318,254.8z"/>
	</g>
	<g>
		<path class="st4" d="M318,254.8l85.2,82.3c-30.3,31.4-73.8,43.4-115.9,32.1L318,254.8z"/>
	</g>
	<g>
		<path class="st5" d="M318,254.8l114.5-30.7c11.3,42.1,1.1,81.6-29.2,113L318,254.8z"/>
	</g>
	<g>
		<path class="st6" d="M318,254.8l30.7-114.5c42.1,11.3,72.5,41.7,83.8,83.8L318,254.8z"/>
	</g>
	<g>
		<path class="st7" d="M318,254.8L234.2,171c30.8-30.8,72.4-42,114.5-30.7L318,254.8z"/>
	</g>
	<g>
		
			<rect x="307.6" y="27.3" transform="matrix(0.7009 -0.7133 0.7133 0.7009 -85.8924 303.3546)" class="st8" width="22.3" height="453.6"/>
	</g>
</g>
<g id="monoChrome_temp">
</g>
</svg>
