<?xml version="1.0" ?><!DOCTYPE svg  PUBLIC '-//W3C//DTD SVG 1.1//EN'  'http://www.w3.org/Graphics/SVG/1.1/DTD/svg11.dtd'><svg height="8.0432mm" style="shape-rendering:geometricPrecision; text-rendering:geometricPrecision; image-rendering:optimizeQuality; fill-rule:evenodd; clip-rule:evenodd" version="1.1" viewBox="0 0 7222 13474" width="4.3113mm" xml:space="preserve" xmlns="http://www.w3.org/2000/svg" xmlns:xlink="http://www.w3.org/1999/xlink"><defs><style type="text/css">
   <![CDATA[
    .fil0 {fill:black}
   ]]>
  </style></defs><g id="Layer_x0020_1"><path class="fil0" d="M3609 7105c1392,0 2519,1128 2519,2519 0,1392 -1127,2520 -2519,2520 -1391,0 -2519,-1128 -2519,-2520 0,-1391 1128,-2519 2519,-2519zm-1203 3001l2406 0c343,0 390,-963 0,-963l-2406 0c-390,0 -342,963 0,963zm-2406 -6677l0 8722c0,645 667,1323 1323,1323l4572 0c644,0 1323,-676 1323,-1323l0 -4602c0,-585 -415,-1098 -944,-1311 -1044,-420 -2482,-485 -3518,-994 -1014,-497 -1048,-1801 -470,-2619 833,-1178 2619,-771 2948,532 92,361 36,515 252,801 626,831 2526,331 1372,-1973 -565,-1127 -1793,-1985 -3068,-1985 -1964,0 -3790,1388 -3790,3429z"/></g></svg>